#!OML:ASF E:\Steps\Project 1\Capture day 1\Session 2\Subject.ASF
:FULLY-SPECIFIED
:DEGREES
181
root 8.93107 16.3802 9.8968 -151.801 5.40878 -180.096
lowerback -28.1974 -1.42123 -5.51738
upperback -2.13516 0.639052 -0.493318
thorax 13.2863 0.266408 2.93566
lowerneck 11.7134 -3.2615 8.63284
upperneck -12.606 -3.83695 -7.21759
head -6.04892 -1.6852 -3.38162
rclavicle -7.25564e-015 5.1684e-015
rhumerus -34.8561 -12.7017 -83.5289
rradius 35.542
rwrist -2.23418
rhand -7.10323 -49.4257
rfingers 7.12502
rthumb 18.7715 -78.54
lclavicle -7.25564e-015 5.1684e-015
lhumerus -28.4168 0.303765 84.4085
lradius 28.8085
lwrist -2.0649
lhand -20.0021 -12.2435
lfingers 7.12502
lthumb 6.3378 17.6416
rfemur -26.948 7.66253 17.7907
rtibia 7.82118
rfoot -18.7582 -9.57862
rtoes -26.0054
lfemur -26.8052 -10.5227 -15.9069
ltibia 7.22116
lfoot -7.23651 5.13923
ltoes -46.1807
182
root 8.93047 16.3806 9.89871 -151.782 5.45591 -180.125
lowerback -28.2078 -1.43383 -5.55113
upperback -2.1546 0.636698 -0.49208
thorax 13.269 0.265728 2.956
lowerneck 11.8364 -3.27784 8.76757
upperneck -12.7944 -3.84933 -7.3578
head -6.13588 -1.68289 -3.44881
rclavicle 5.46658e-015 0
rhumerus -34.921 -12.6655 -83.5017
rradius 35.5368
rwrist -2.28046
rhand -7.3894 -50.06
rfingers 7.12502
rthumb 18.4963 -79.2007
lclavicle 5.46658e-015 0
lhumerus -28.4955 0.399049 84.36
lradius 28.646
lwrist -2.20881
lhand -20.398 -12.7065
lfingers 7.12502
lthumb 5.95555 17.1898
rfemur -26.9786 7.66189 17.7349
rtibia 7.80837
rfoot -18.7422 -9.52252
rtoes -26.0474
lfemur -26.8152 -10.5777 -15.9212
ltibia 7.17371
lfoot -7.18837 5.17179
ltoes -45.9436
183
root 8.93116 16.3804 9.89851 -151.841 5.45899 -180.142
lowerback -28.2075 -1.44625 -5.56589
upperback -2.13458 0.622258 -0.489393
thorax 13.2935 0.255724 2.96189
lowerneck 11.9902 -3.29328 8.87179
upperneck -12.9942 -3.86172 -7.48202
head -6.23101 -1.67967 -3.50591
rclavicle 1.04362e-014 -2.66371e-014
rhumerus -35.0473 -12.6812 -83.4616
rradius 35.5795
rwrist -2.26149
rhand -7.42599 -50.2444
rfingers 7.12502
rthumb 18.4611 -79.3883
lclavicle 1.04362e-014 -2.66371e-014
lhumerus -28.5813 0.573641 84.2843
lradius 28.47
lwrist -2.43615
lhand -20.4611 -13.0035
lfingers 7.12502
lthumb 5.89466 16.8945
rfemur -26.8686 7.48379 17.7819
rtibia 7.73717
rfoot -18.7284 -9.43506
rtoes -26.163
lfemur -26.741 -10.5541 -15.9621
ltibia 7.15746
lfoot -7.2079 5.11882
ltoes -45.881
184
root 8.93196 16.3805 9.89436 -151.957 5.48415 -180.11
lowerback -28.2005 -1.41927 -5.51902
upperback -2.09057 0.636242 -0.493415
thorax 13.3408 0.259208 2.93503
lowerneck 12.1761 -3.32345 9.00406
upperneck -13.2039 -3.88665 -7.60125
head -6.33658 -1.68391 -3.5649
rclavicle -1.59028e-015 2.06736e-014
rhumerus -35.1561 -12.8273 -83.3468
rradius 35.4904
rwrist -2.19415
rhand -7.17271 -49.804
rfingers 7.12502
rthumb 18.7047 -78.9247
lclavicle -1.59028e-015 2.06736e-014
lhumerus -28.6524 0.609452 84.2027
lradius 28.2639
lwrist -2.47433
lhand -20.4287 -13.3064
lfingers 7.12502
lthumb 5.92591 16.5907
rfemur -26.6957 7.42723 17.8546
rtibia 7.67171
rfoot -18.716 -9.3744
rtoes -25.8707
lfemur -26.5677 -10.509 -15.9649
ltibia 7.12391
lfoot -7.1962 5.10817
ltoes -45.616
185
root 8.93016 16.3788 9.88581 -152.044 5.6553 -180.067
lowerback -28.2032 -1.34059 -5.45044
upperback -2.08447 0.718673 -0.517229
thorax 13.3429 0.30014 2.89956
lowerneck 12.2959 -3.35283 9.17165
upperneck -13.3783 -3.91062 -7.74105
head -6.42091 -1.68899 -3.63695
rclavicle 1.98785e-016 -7.55382e-015
rhumerus -35.2567 -12.9327 -83.2286
rradius 35.3213
rwrist -2.13649
rhand -6.99199 -50.3863
rfingers 7.12502
rthumb 18.8785 -79.4902
lclavicle 1.98785e-016 -7.55382e-015
lhumerus -28.7535 0.6084 84.1228
lradius 28.0453
lwrist -2.49691
lhand -20.4719 -13.3423
lfingers 7.12502
lthumb 5.88425 16.556
rfemur -26.5915 7.53817 17.8384
rtibia 7.64485
rfoot -18.7921 -9.13586
rtoes -25.0166
lfemur -26.312 -10.626 -15.9506
ltibia 6.923
lfoot -7.10355 5.4261
ltoes -45.7362
186
root 8.93215 16.3807 9.89363 -151.988 5.59544 -180.157
lowerback -28.1008 -1.4165 -5.55486
upperback -2.15703 0.653699 -0.522553
thorax 13.2078 0.274897 2.92769
lowerneck 12.3723 -3.37532 9.33775
upperneck -13.5467 -3.92736 -7.87701
head -6.49529 -1.69131 -3.70875
rclavicle -1.78906e-014 3.26007e-014
rhumerus -35.3754 -13.1214 -83.1234
rradius 35.2042
rwrist -1.83386
rhand -6.88462 -50.9202
rfingers 7.12502
rthumb 18.9818 -80.0139
lclavicle -1.78906e-014 3.26007e-014
lhumerus -28.8364 0.74622 84.0257
lradius 27.8344
lwrist -2.60291
lhand -20.707 -13.0533
lfingers 7.12502
lthumb 5.65726 16.8512
rfemur -26.6917 7.55346 17.7366
rtibia 7.65457
rfoot -18.7994 -9.27669
rtoes -25.3665
lfemur -26.4608 -10.6111 -16.0249
ltibia 6.9948
lfoot -7.06435 5.34554
ltoes -46.3811
